name C:\Users\u0101727\Documents\MyRepositories\upper-imu-dc\Results\main_tracking\Case_32\ABD01_orientations_groundFrame.mot
datacolumns 13
datarows 32
range 4.56000000 4.87000000
endheader 
time	radius_imu_[0][0]	radius_imu_[0][1]	radius_imu_[0][2]	radius_imu_[1][0]	radius_imu_[1][1]	radius_imu_[1][2]	radius_imu_[2][0]	radius_imu_[2][1]	radius_imu_[2][2]	radius_imu_x	radius_imu_y	radius_imu_z	
          4.56000000	          0.97953998	          0.14925551	          0.13499712	         -0.14636835	          0.06797813	          0.98689173	          0.13812218	         -0.98645921	          0.08843358	         -1.48142683	          0.13541055	         -0.15120998	
          4.57000000	          0.97939366	          0.15064559	          0.13451384	         -0.14483425	          0.05972227	          0.98765191	          0.14075193	         -0.98678222	          0.08031025	         -1.48966051	          0.13492283	         -0.15261905	
          4.58000000	          0.97925073	          0.15199707	          0.13403318	         -0.14327249	          0.05150803	          0.98834200	          0.14332131	         -0.98703790	          0.07221628	         -1.49785784	          0.13443777	         -0.15398891	
          4.59000000	          0.97911389	          0.15330414	          0.13354338	         -0.14167065	          0.04332520	          0.98896529	          0.14582668	         -0.98722883	          0.06413900	         -1.50603238	          0.13394353	         -0.15531337	
          4.60000000	          0.97898216	          0.15456454	          0.13305536	         -0.14003922	          0.03516182	          0.98952143	          0.14826646	         -0.98735680	          0.05606789	         -1.51419522	          0.13345112	         -0.15659033	
          4.61000000	          0.97885145	          0.15577915	          0.13259978	         -0.13840851	          0.02700400	          0.99000700	          0.15064173	         -0.98742273	          0.04799406	         -1.52235574	          0.13299146	         -0.15782133	
          4.62000000	          0.97871595	          0.15695125	          0.13221722	         -0.13681870	          0.01883682	          0.99041699	          0.15295663	         -0.98742670	          0.03990976	         -1.53052220	          0.13260550	         -0.15901060	
          4.63000000	          0.97857003	          0.15808582	          0.13194535	         -0.13530712	          0.01064673	          0.99074650	          0.15521819	         -0.98736798	          0.03180871	         -1.53870155	          0.13233123	         -0.16016405	
          4.64000000	          0.97840986	          0.15918899	          0.13180675	         -0.13389629	          0.00242460	          0.99099238	          0.15743549	         -0.98724515	          0.02368706	         -1.54689851	          0.13219141	         -0.16128845	
          4.65000000	          0.97823466	          0.16026735	          0.13180032	         -0.13258560	         -0.00583177	          0.99115440	          0.15961832	         -0.98705641	          0.01554431	         -1.55511458	          0.13218492	         -0.16239057	
          4.66000000	          0.97804720	          0.16132723	          0.13189844	         -0.13134848	         -0.01411687	          0.99123574	          0.16177531	         -0.98680000	          0.00738312	         -1.56334807	          0.13228391	         -0.16347629	
          4.67000000	          0.97785337	          0.16237366	          0.13205145	         -0.13013686	         -0.02241894	          0.99124255	          0.16391214	         -0.98647462	         -0.00079164	         -1.57159496	          0.13243827	         -0.16454972	
          4.68000000	          0.97766079	          0.16340960	          0.13219937	         -0.12889272	         -0.03072246	          0.99118252	          0.16603023	         -0.98607983	         -0.00897384	         -1.57984975	          0.13258749	         -0.16561254	
          4.69000000	          0.97747669	          0.16443545	          0.13228873	         -0.12756490	         -0.03901055	          0.99106275	          0.16812651	         -0.98561613	         -0.01715571	         -1.58810502	          0.13267765	         -0.16666395	
          4.70000000	          0.97730544	          0.16544942	          0.13228973	         -0.12612649	         -0.04726601	          0.99088750	          0.17019457	         -0.98508498	         -0.02532577	         -1.59634944	          0.13267865	         -0.16770139	
          4.71000000	          0.97714692	          0.16644852	          0.13220736	         -0.12458622	         -0.05547121	          0.99065696	          0.17222709	         -0.98448862	         -0.03346633	         -1.60456544	          0.13259556	         -0.16872190	
          4.72000000	          0.97699623	          0.16743001	          0.13208165	         -0.12298878	         -0.06360751	          0.99036753	          0.17421863	         -0.98382990	         -0.04155228	         -1.61272816	          0.13246874	         -0.16972353	
          4.73000000	          0.97684517	          0.16839253	          0.13197526	         -0.12140218	         -0.07165508	          0.99001367	          0.17616760	         -0.98311215	         -0.04955270	         -1.62080713	          0.13236141	         -0.17070633	
          4.74000000	          0.97668520	          0.16933668	          0.13195116	         -0.11989483	         -0.07959384	          0.98959085	          0.17807653	         -0.98233900	         -0.05743554	         -1.62877097	          0.13233710	         -0.17167238	
          4.75000000	          0.97651086	          0.17026465	          0.13204730	         -0.11850942	         -0.08740536	          0.98909849	          0.17995015	         -0.98151427	         -0.06517432	         -1.63659385	          0.13243408	         -0.17262483	
          4.76000000	          0.97632256	          0.17117911	          0.13225721	         -0.11724290	         -0.09507517	          0.98854176	          0.18179207	         -0.98064184	         -0.07275450	         -1.64426167	          0.13264585	         -0.17356631	
          4.77000000	          0.97612756	          0.17208178	          0.13252491	         -0.11604099	         -0.10259505	          0.98793155	          0.18360142	         -0.97972553	         -0.08017731	         -1.65177560	          0.13291593	         -0.17449732	
          4.78000000	          0.97593864	          0.17297215	          0.13275693	         -0.11481023	         -0.10996473	          0.98728232	          0.18537093	         -0.97876882	         -0.08745986	         -1.65915215	          0.13315002	         -0.17541508	
          4.79000000	          0.97577106	          0.17384636	          0.13284683	         -0.11344287	         -0.11719291	          0.98660860	          0.18708702	         -0.97777465	         -0.09463182	         -1.66642008	          0.13324072	         -0.17631308	
          4.80000000	          0.97563885	          0.17469655	          0.13270251	         -0.11184460	         -0.12429727	          0.98592138	          0.18873162	         -0.97674526	         -0.10173038	         -1.67361551	          0.13309511	         -0.17718095	
          4.81000000	          0.97555190	          0.17551055	          0.13226695	         -0.10995592	         -0.13130298	          0.98522547	          0.19028450	         -0.97568211	         -0.10879445	         -1.68077668	          0.13265567	         -0.17800477	
          4.82000000	          0.97551453	          0.17627208	          0.13152781	         -0.10776243	         -0.13823957	          0.98451871	          0.19172550	         -0.97458605	         -0.11585920	         -1.68793860	          0.13191002	         -0.17876751	
          4.83000000	          0.97552546	          0.17696165	          0.13051686	         -0.10529502	         -0.14513642	          0.98379285	          0.19303636	         -0.97345775	         -0.12295109	         -1.69512829	          0.13089028	         -0.17944999	
          4.84000000	          0.97557870	          0.17755829	          0.12930291	         -0.10262351	         -0.15201799	          0.98303558	          0.19420249	         -0.97229809	         -0.13008386	         -1.70236068	          0.12966596	         -0.18003244	
          4.85000000	          0.97566467	          0.17804200	          0.12798240	         -0.09984747	         -0.15889993	          0.98223281	          0.19521509	         -0.97110857	         -0.13725601	         -1.70963605	          0.12833438	         -0.18049675	
          4.86000000	          0.97577124	          0.17839650	          0.12666952	         -0.09708617	         -0.16578735	          0.98137089	          0.19607334	         -0.96989136	         -0.14445070	         -1.71693969	          0.12701073	         -0.18082904	
          4.87000000	          0.97588473	          0.17861189	          0.12548616	         -0.09446762	         -0.17267560	          0.98043817	          0.19678631	         -0.96864902	         -0.15163844	         -1.72424444	          0.12581785	         -0.18102203	
